<?xml version="1.0" encoding="utf-8"?>
<!-- Generator: Adobe Illustrator 24.2.0, SVG Export Plug-In . SVG Version: 6.00 Build 0)  -->
<svg version="1.1" id="Layer_1" xmlns="http://www.w3.org/2000/svg" xmlns:xlink="http://www.w3.org/1999/xlink" x="0px" y="0px"
	 viewBox="0 0 735 852" style="enable-background:new 0 0 735 852;" xml:space="preserve">
<style type="text/css">
	.st0{fill:#EE4C2C;stroke:#EE4C2C;stroke-miterlimit:10;}
	.st1{fill:url(#SVGID_1_);}
	.st2{display:none;}
	.st3{display:inline;enable-background:new    ;}
	.st4{fill:#FFFFFF;}
	.st5{enable-background:new    ;}
	.st6{fill:#EF2F0F;}
	.st7{fill:#EE4C2C;}
	.st8{fill:#BBBCBB;}
	.st9{fill:#790D05;}
	.st10{fill:#BBBBBB;}
	.st11{fill:#1F7759;}
	.st12{fill:#E32D5B;}
	.st13{fill:#431C62;}
</style>
<g id="Layer_1_2_">
	<g id="Layer_1_1_">
		<g id="Layer_5">
			<path class="st0" d="M705.6,196.2L427.8,35.8L367.5,1l-60.3,34.8L29.4,196.2L0.1,213.1v424.2l29.3,16.9l281.3,162.4l56.9,32.8
				l56.9-32.8l281.3-162.4l29.1-16.8V213.1L705.6,196.2z M705.6,621.5L367.5,816.7L29.4,621.5V231l50-28.9L367.5,35.8l287.2,165.8
				l50.9,29.4L705.6,621.5L705.6,621.5z"/>
		</g>
		<g id="background">
			
				<linearGradient id="SVGID_1_" gradientUnits="userSpaceOnUse" x1="18.208" y1="56.0862" x2="716.792" y2="459.4138" gradientTransform="matrix(1 0 0 1 0 168)">
				<stop  offset="0" style="stop-color:#431C62"/>
				<stop  offset="0.4823" style="stop-color:#4D1C74"/>
				<stop  offset="0.5793" style="stop-color:#501D73"/>
				<stop  offset="0.6609" style="stop-color:#5B206E"/>
				<stop  offset="0.737" style="stop-color:#6C2566"/>
				<stop  offset="0.8097" style="stop-color:#852D5B"/>
				<stop  offset="0.8801" style="stop-color:#A5364D"/>
				<stop  offset="0.9477" style="stop-color:#CB423C"/>
				<stop  offset="1" style="stop-color:#EE4C2C"/>
			</linearGradient>
			<path class="st1" d="M664.2,193.8L367.5,22.5L69.8,194.3l-51.6,29.8v403.3L367.5,829l349.3-201.6V224.1L664.2,193.8z"/>
		</g>
		<g id="font" class="st2">
			<g class="st3">
				<path class="st4" d="M194,192.6v72.6c0,5.8,0.1,9.5,0.2,11c0.2,1.5,0.8,2.7,1.9,3.5c1.1,0.8,3.1,1.2,5.9,1.2h1.6v3.1h-29.1v-3.1
					h1.9c2.7,0,4.5-0.4,5.7-1.1s1.8-1.8,2-3.1c0.2-1.3,0.3-5.1,0.3-11.4v-53.8c0-5.7-0.5-9.3-1.5-10.8s-3.5-2.2-7.4-2.2v-3.1
					c2.7,0,5.9-0.3,9.5-0.9c3.7-0.6,6.2-1.2,7.5-1.9L194,192.6L194,192.6z"/>
				<path class="st4" d="M274.6,274h2.5c-0.4,7.6-4.1,11.4-11.2,11.4c-3,0-5.4-0.8-7.1-2.4s-2.9-4-3.4-7.1
					c-4.4,3.1-8.5,5.5-12.1,7.1s-6.9,2.4-9.8,2.4c-3.7,0-6.8-1.1-9.5-3.2s-4-4.9-4-8.4c0-4.6,2.2-8.5,6.7-12
					c4.4-3.4,10.6-6.7,18.4-10l10.3-4.2v-2.7c0-3.8-0.2-6.5-0.7-8.2s-1.7-3.2-3.8-4.5c-2-1.3-4.7-2-8-2c-6.6,0-10.3,2.2-11.1,6.6
					c-0.7,4.5-2.6,6.8-5.6,6.8c-2.7,0-4.1-1.3-4.1-3.9c0-2.5,1.8-5.2,5.4-8.1c3.6-2.9,9.2-4.3,16.7-4.3c5.6,0,10,0.9,13.1,2.7
					s5.1,3.8,6.1,6s1.5,5.7,1.5,10.4v22c0,5.1,0.3,8.4,0.8,9.9s1.7,2.2,3.5,2.2C272.1,280.5,273.9,278.3,274.6,274z M255.4,250.7
					l-7.2,2.9c-11.4,4.6-17.1,10.5-17.1,17.5c0,2.8,0.7,5,2.2,6.7s3.4,2.6,5.7,2.6c2.1,0,4.5-0.7,7.2-2.1s5.8-3.4,9.2-6.2
					L255.4,250.7L255.4,250.7z"/>
				<path class="st4" d="M308.2,227.3h1.8c1,2.7,1.6,6.5,1.7,11.2c3.2-3.8,6.5-6.6,10-8.4c3.5-1.9,7.1-2.8,11-2.8
					c4.3,0,7.9,0.9,10.7,2.7c2.8,1.8,4.5,4,5.3,6.7c0.8,2.6,1.2,6.5,1.2,11.5v17c0,6.3,0.1,10.1,0.3,11.5c0.2,1.4,0.9,2.4,2.1,3.1
					s3.3,1,6.5,1v3.1H331v-3.1h1.3c3.2,0,5.3-0.5,6.2-1.4c1-0.9,1.5-2,1.7-3.3c0.1-1.2,0.2-4.9,0.2-11v-17.5c0-4.3-0.2-7.4-0.6-9.2
					s-1.6-3.5-3.4-4.9s-4.2-2.1-7-2.1c-3.2,0-6.3,1-9.3,2.9c-2.9,1.9-5.7,4.8-8.3,8.7v22.2c0,6.3,0.1,10.1,0.4,11.5
					c0.2,1.4,1,2.4,2.1,3.1c1.2,0.7,3.4,1,6.5,1v3.1h-27.5v-3.1c3.1,0,5.2-0.3,6.4-0.9c1.2-0.6,1.9-1.6,2.2-2.8
					c0.3-1.3,0.4-5.2,0.4-11.9V249c0-6.3-0.1-10.2-0.4-11.5c-0.2-1.3-1-2.4-2.1-3.1c-1.2-0.7-3.4-1-6.5-1v-3.1
					C298.2,229.9,303.1,228.8,308.2,227.3z"/>
				<path class="st4" d="M407.1,232.6h-16.4v32.9c0,5,0.2,8.4,0.7,10.2c0.4,1.7,1.4,3.2,2.8,4.2c1.4,1.1,3,1.6,4.6,1.6
					c3.2,0,6-1.8,8.3-5.4l2.1,1.3c-1.4,2.9-3.4,5.1-6.1,6.6s-5.4,2.2-8.1,2.2c-3.2,0-6-0.9-8.4-2.8s-3.9-4.1-4.5-6.6
					s-0.9-7-0.9-13.3v-30.8h-7.9v-3.1c3.6-0.1,6.9-1.6,9.8-4.6s4.7-7.1,5.5-12.5h2.1v17.1h16.4V232.6z"/>
				<path class="st4" d="M472.7,247.9h-37.9c-0.2,2.6-0.3,4.6-0.3,5.8c0,9.6,1.5,16.7,4.5,21.5c3,4.8,7.4,7.2,13.4,7.2
					c8.1,0,13.8-3.6,17.1-10.8h3.2c-1.4,4.5-4.2,8-8.4,10.6c-4.2,2.5-8.8,3.8-13.7,3.8c-4.6,0-9-1.2-13-3.5
					c-4.1-2.3-7.4-5.6-10.1-9.9c-2.6-4.2-3.9-9.4-3.9-15.5c0-8.6,2.5-15.7,7.6-21.4c5-5.7,11.4-8.5,18.9-8.5
					c7.1,0,12.6,2.2,16.5,6.5C470.4,238.2,472.5,242.9,472.7,247.9z M461.1,245.3c0.1-1,0.2-1.9,0.2-2.7c0-3.9-1.1-6.9-3.4-9.1
					c-2.3-2.1-5.1-3.2-8.4-3.2c-8.1,0-12.9,5-14.4,15H461.1z"/>
				<path class="st4" d="M507.5,241.2c1.5-3.9,4-7.2,7.3-9.9s6.7-4,9.9-4c2.9,0,5.2,0.9,6.9,2.7s2.5,3.7,2.5,5.6
					c0,1.3-0.4,2.4-1.3,3.3s-1.9,1.4-3.2,1.4c-2.2,0-3.9-1.6-5-4.9c-0.8-2.2-2-3.3-3.6-3.3c-1.9,0-4.2,1.3-6.8,3.9s-4.4,5.3-5.1,8.1
					c-0.8,2.8-1.1,6.6-1.1,11.5v9.7c0,5.8,0.1,9.5,0.2,11c0.2,1.5,0.8,2.7,1.9,3.5s3.1,1.2,5.9,1.2h1.9v3.1H489V281h1.4
					c2.7,0,4.5-0.4,5.7-1.1s1.8-1.8,2-3.1c0.2-1.3,0.3-5.1,0.3-11.4v-15.3c0-5.8-0.1-9.5-0.2-11c-0.2-1.5-0.8-2.6-1.9-3.5
					c-1.1-0.8-3.1-1.2-5.9-1.2H489v-3c4.2-0.5,9.6-1.8,16.3-3.9C506.7,230.8,507.4,235.5,507.5,241.2z"/>
				<path class="st4" d="M560.9,227.3h1.8c1,2.7,1.6,6.5,1.7,11.2c3.2-3.8,6.5-6.6,10-8.4c3.5-1.9,7.1-2.8,11-2.8
					c4.3,0,7.9,0.9,10.7,2.7s4.5,4,5.3,6.7c0.8,2.6,1.2,6.5,1.2,11.5v17c0,6.3,0.1,10.1,0.3,11.5s0.9,2.4,2.1,3.1
					c1.2,0.7,3.3,1,6.5,1v3.1h-27.8v-3.1h1.3c3.2,0,5.3-0.5,6.2-1.4c1-0.9,1.5-2,1.7-3.3c0.1-1.2,0.2-4.9,0.2-11v-17.5
					c0-4.3-0.2-7.4-0.6-9.2c-0.4-1.8-1.6-3.5-3.4-4.9c-1.8-1.4-4.2-2.1-7-2.1c-3.2,0-6.3,1-9.3,2.9c-2.9,1.9-5.7,4.8-8.3,8.7v22.2
					c0,6.3,0.1,10.1,0.4,11.5c0.2,1.4,1,2.4,2.1,3.1c1.2,0.7,3.4,1,6.5,1v3.1H546v-3.1c3.1,0,5.2-0.3,6.4-0.9s1.9-1.6,2.2-2.8
					c0.3-1.3,0.4-5.2,0.4-11.9V249c0-6.3-0.1-10.2-0.4-11.5c-0.2-1.3-1-2.4-2.1-3.1c-1.2-0.7-3.4-1-6.5-1v-3.1
					C550.8,229.9,555.8,228.8,560.9,227.3z"/>
			</g>
		</g>
	</g>
</g>
<g id="Layer_2_2_">
	<g class="st5">
		<path class="st4" d="M154.1,195.6H166v95.8h-11.9V195.6z"/>
		<path class="st4" d="M231.3,291.4l-0.9-8.2H230c-3.6,5.1-10.7,9.7-20,9.7c-13.2,0-20-9.3-20-18.8c0-15.8,14-24.4,39.3-24.3v-1.4
			c0-5.4-1.5-15.1-14.8-15.1c-6.1,0-12.4,1.9-17,4.9l-2.7-7.8c5.4-3.5,13.2-5.8,21.5-5.8c20,0,24.8,13.6,24.8,26.7v24.4
			c0,5.7,0.3,11.2,1.1,15.7H231.3z M229.5,258.1c-13-0.3-27.7,2-27.7,14.7c0,7.7,5.1,11.3,11.2,11.3c8.5,0,13.9-5.4,15.8-10.9
			c0.4-1.2,0.7-2.6,0.7-3.8V258.1z"/>
		<path class="st4" d="M266.6,243.8c0-6.7-0.1-12.3-0.5-17.7h10.5l0.7,10.8h0.3c3.2-6.2,10.8-12.3,21.6-12.3c9,0,23.1,5.4,23.1,27.8
			v39h-11.9v-37.7c0-10.5-3.9-19.3-15.1-19.3c-7.8,0-13.9,5.5-15.9,12.1c-0.5,1.5-0.8,3.5-0.8,5.5v39.3h-11.9v-47.5L266.6,243.8
			L266.6,243.8z"/>
		<path class="st4" d="M368,207.3v18.8h17v9h-17v35.2c0,8.1,2.3,12.7,8.9,12.7c3.1,0,5.4-0.4,6.9-0.8l0.5,8.9
			c-2.3,0.9-5.9,1.6-10.5,1.6c-5.5,0-10-1.8-12.8-5c-3.4-3.5-4.6-9.3-4.6-17v-35.6h-10.1v-9h10.1v-15.7L368,207.3z"/>
		<path class="st4" d="M420.3,260.9c0.3,16.1,10.5,22.7,22.4,22.7c8.5,0,13.6-1.5,18.1-3.4l2,8.5c-4.2,1.9-11.3,4-21.7,4
			c-20.1,0-32.1-13.2-32.1-32.9s11.6-35.2,30.6-35.2c21.3,0,27,18.8,27,30.8c0,2.4-0.3,4.3-0.4,5.5L420.3,260.9L420.3,260.9z
			 M455.2,252.4c0.1-7.6-3.1-19.3-16.5-19.3c-12,0-17.3,11.1-18.2,19.3H455.2z"/>
		<path class="st4" d="M491.2,246.5c0-7.7-0.1-14.3-0.5-20.4H501l0.4,12.8h0.5c3-8.8,10.1-14.3,18.1-14.3c1.3,0,2.3,0.1,3.4,0.4
			v11.2c-1.2-0.3-2.4-0.4-4-0.4c-8.4,0-14.3,6.3-15.9,15.3c-0.3,1.6-0.5,3.5-0.5,5.5v34.8h-11.7v-44.9H491.2z"/>
		<path class="st4" d="M548,243.8c0-6.7-0.1-12.3-0.5-17.7H558l0.7,10.8h0.3c3.2-6.2,10.8-12.3,21.6-12.3c9,0,23.1,5.4,23.1,27.8v39
			h-11.9v-37.7c0-10.5-3.9-19.3-15.1-19.3c-7.8,0-13.9,5.5-15.9,12.1c-0.5,1.5-0.8,3.5-0.8,5.5v39.3h-12L548,243.8L548,243.8z"/>
	</g>
</g>
<g id="lanterns">
	<g>
		<g>
			<path class="st6" d="M418.9,356.5c0-0.9,0-1.9-0.1-3l0,0c0.3-2.7-1-4-4.9-3.7c-5.4,0.4-10.9-0.4-16.3,0.1
				c-0.8,0.1-2.7,0.4-4.6-0.8c-0.8-0.5-1.3-1.2-1.5-1.4c-6.6-7.6-13.1-15.3-19.8-23c-1.2-1.3-1.5-2.7-1.5-4.4
				c0.1-8.4,0.1-16.7,0.3-25.1c0.8-1,0.9-1.8,0-2.7c-0.3-0.3-0.6-0.3-1-0.3c-4,0.4-2.1,3.3-2.2,5.1c-0.5,8.6,0.4,17.4-0.5,26.1
				c-2.6,3.7-5.7,7.7-9.4,12c-5,5.5-9.9,10-14.3,13.5c-5,0.3-10,0.5-15,0.8l-0.1,0.1l-0.1,0.1l0,0c0,0-0.1,0.1-0.3,0.3l0,0
				c-0.5,0.5-1.2,1.3-1.4,2.4c-0.5,1.7-0.1,3.2,0,3.7c0,0.1,0.1,0.1,0.3,0.3c1.5,1.7,3.7,1.2,5.7,1.2h81.2c1.9,0,4.1,0.5,5.7-1.2
				C418.9,356.7,418.9,356.5,418.9,356.5L418.9,356.5L418.9,356.5L418.9,356.5z M327.5,355.4v-0.1V355.4
				C327.7,355.4,327.5,355.4,327.5,355.4z"/>
			<path class="st7" d="M418.9,356.5L418.9,356.5L418.9,356.5C418.9,356.7,418.9,356.5,418.9,356.5z"/>
			<path class="st7" d="M418.9,356.5L418.9,356.5L418.9,356.5L418.9,356.5L418.9,356.5z"/>
			<path class="st6" d="M463.7,389.3c-3.1,3.6-6,7.2-9.1,10.8c-0.1,0.1-0.3,0.1-0.3,0.3c-2.4,2.1-5.5,1.8-8.5,1.8
				c-49.8,0.1-99.5,0-149.3,0.1c-1.5,0-3.2,0-4.6-0.6c-0.1,0-0.1-0.1-0.3-0.1c-1.3-5.4-6.2-8.5-9.1-12.7c-0.6-1-3.1-1.7-1-3.5l0,0
				c2.7,5,7.7,3.5,11.8,3.5c48.1,0.1,96,0,144.1,0.1c8,0,15.7-1.2,23.5-1.5c1.5-0.1,3.6,0.1,3.7-2.2c0,0,0-0.1-0.1-0.1
				c0,0,0,0,0.1,0C467,387.1,464.7,388.2,463.7,389.3z"/>
			<path class="st7" d="M283.2,498.3C283.3,498.3,283.3,498.3,283.2,498.3L283.2,498.3L283.2,498.3z"/>
			<path class="st7" d="M284.7,442.3c-0.1,0-0.3,0.1-0.3,0.1c-0.9,0-1.8,0-2.7-0.1H284.7z"/>
			<path class="st7" d="M466,442.4c-0.8,0.5-1.5,0.6-2.4,0.6c-0.8,0-1.7,0-2.4,0c-47.4,0-77,1.8-130.4,0c-10.8-0.4-26.6-0.8-46-0.8
				h-3v-0.1c2.7-5.1,7.7-8.7,11.2-13.4c0,0,0,0.1,0.1,0.1c2.2,1.2,4.6,0.9,6.9,0.9c49.6-0.1,99.4-0.1,149,0c2.3,0,4.8,0.3,6.9-0.9
				c0,0,0,0,0-0.1c2.8,3.6,5.7,7.2,8.5,10.9l-0.1,0.1h0.3c0.1,0.4,0.1,0.8,0.1,1.3h-0.1C465.1,441.5,465.5,442,466,442.4z"/>
		</g>
		<g>
			<path class="st6" d="M469,581.3c-9.9,9-22.1,18.3-36.9,26.6c-3.3,1.8-6.7,3.6-9.9,5.1c-0.3-1.3-1.3-2.1-4.1-2.1
				c-29.2,0.3-58.5,0.4-87.7,0.5c-17-7.6-35.1-13.5-45.5-30.1h183.8c-0.1-0.1-0.3-0.4-0.5-0.5C468.4,581,468.7,581.1,469,581.3z"/>
			<path class="st6" d="M459.7,478.9c-0.8,1.9-3.6,3-3.6,5.7c0,0,0,0-0.1,0c-1.7,1-3.6,1-5.4,0.9c-48.2-0.1-96.4,2.3-144.6,1.3
				c-3.9-0.1-8.1,0.9-11.3-2.2l-0.1-0.1c-3.5-4-6.9-7.8-10.4-11.8c-1-1.3-3.5-2.3-0.9-4.2h0.1c2.1,2.2,4.8,1.2,7.2,1.2
				c56,0.1,112.2,0,168.3,0c2.4,0,5.3,0.9,7.3-1.3C467.5,473.8,461.2,475.1,459.7,478.9z"/>
			<path class="st7" d="M466.1,468.3c-2.1,2.2-4.9,1.3-7.3,1.3c-56,0-112.2,0.1-168.3,0c-2.4,0-5.1,1-7.2-1.2l-0.1-0.1
				c3.3-3.6,6.6-7.3,9.9-10.9c0,0,0,0,0.1-0.1c2.2-1,4.4-1.2,6.7-1.2c52.1,0.1,104,0.1,156.1,0.1
				C459.4,460.2,462.8,464.3,466.1,468.3z"/>
			<path class="st6" d="M460.3,506.4c-1.2,1.5-0.6,4-2.1,5.4c-0.4,0.4-0.9,0.6-1.7,0.9c-5.9,1.2-11.8,1.3-17.7,1.3H306.3
				c-4,0-8,0.8-11.4-1.9l-0.1-0.1c-3.9-4.6-7.6-9-11.4-13.6h54.1c4.4-1,8.6-1,12.9,0c21.2,0.3,42.4-2.1,63.8-1.4
				c14.9,0.4,29.8,0.1,44.7,0c2.4,0,5.3,0.9,7.3-1.4C469.3,501.7,461.6,502.5,460.3,506.4z"/>
			<path class="st7" d="M466.1,495.5c-2.1,2.3-4.9,1.4-7.3,1.4c-14.9,0.1-29.8,0.4-44.7,0c-21.3-0.6-42.6,1.7-63.8,1.4
				c-4.2-1-8.5-1-12.9,0h-54.1l0,0l0.1-0.1l0,0c1.3-1.7,2.4-3.1,3.2-4.2c3.1-3.9,5.4-6.6,6.3-7.6c0.6-0.6,1.2-1.3,1.5-1.7h0.1
				c3.2,3.1,7.3,2.1,11.3,2.2c48.2,1,96.4-1.4,144.6-1.3c1.9,0.1,3.9,0.1,5.4-0.9c0.1,0,0.1,0,0.3,0.1
				C459.4,488.3,462.8,491.9,466.1,495.5z"/>
			<path class="st8" d="M283.3,498.1l-0.1,0.1l0,0C283.3,498.2,283.3,498.1,283.3,498.1z"/>
			<path class="st7" d="M464.7,385.2c-0.1,2.3-2.2,2.1-3.7,2.2c-7.8,0.4-15.6,1.5-23.5,1.5c-48.1-0.1-96,0-144.1-0.1
				c-4.1,0-9.1,1.5-11.8-3.5l0,0l0,0c10.3-15.8,28.5-20.6,44.4-28.7c0.1,0,0.3,0,0.4,0c1.5,1.7,3.7,1.2,5.7,1.2h81.2
				c1.9,0,4.1,0.5,5.7-1.2h0.1v-0.1l0,0l0,0l0,0c0,0,0,0,0.1,0C436.2,363.4,453.9,369.1,464.7,385.2L464.7,385.2
				C464.7,385.1,464.7,385.2,464.7,385.2z"/>
			<path class="st6" d="M466.5,528.4c-3.1,3.6-6.2,7.2-9.1,10.8l-0.1,0.1c-2.7,2.3-6,1.9-9.4,1.9c-49.2,0.1-98.6,0-147.8,0.1
				c-1.9,0-3.9,0-5.5-0.9c-1-5.4-7.3-7.2-9.3-12c-0.5-1.4-3.2-2.4-0.8-4.4c0,0,0,0,0.1,0c0,0,0,0-0.1,0.1c0.4,3.1,3.1,3.2,5.3,3.3
				c6.8,0.5,13.6,1.5,20.6,1.7c10.3,0.1,20.3-1.7,30.6-1.5c27.8,0.3,55.7,0.1,83.4,0.1c11.7,0,23.3,0.1,35-0.1
				c3-0.1,6.9,0.9,8.1-3.5l0,0c0,0,0,0,0-0.1C470,526.1,467.5,527.1,466.5,528.4z"/>
			<path class="st7" d="M467.4,524.3c-1.2,4.4-5.1,3.3-8.1,3.5c-11.7,0.3-23.3,0.1-35,0.1c-27.8,0-55.7,0.1-83.4-0.1
				c-10.3-0.1-20.3,1.7-30.6,1.5c-6.9-0.1-13.8-1.2-20.6-1.7c-2.2-0.1-4.9-0.3-5.3-3.3c0,0,0,0,0.1-0.1c3.5-4.1,6.7-8.1,10-12.1h0.3
				c3.5,2.7,7.5,1.9,11.4,1.9h132.5c5.9,0,11.8-0.1,17.7-1.3c0.8-0.3,1.3-0.5,1.7-0.9h0.1c-0.1,0.5-0.3,1.4,0.1,2.4
				c0.3,0.8,0.5,1.2,0.6,1.4C460.1,516.9,463,520.2,467.4,524.3L467.4,524.3z"/>
			<path class="st6" d="M462.4,419.3c-2.6,3-5.4,5.7-6.4,9.5c0,0,0,0,0,0.1c-2.2,1.2-4.6,0.9-6.9,0.9c-49.6-0.1-99.4-0.1-149,0
				c-2.3,0-4.8,0.3-6.9-0.9l-0.1-0.1c-3.7-4.5-7.3-9-11.2-13.4c3.7,2.3,8,1.9,12.1,2.1c53.7,1,107.3-1.7,161.1-1.4
				c2.2,0.1,4.4,0.1,6.4-0.5c1.5-0.4,3.2-0.9,3.2-3l0,0l0,0C467,415.7,463.9,417.4,462.4,419.3z"/>
			<path class="st7" d="M464.7,412.6c0,2.1-1.7,2.6-3.2,3c-2.1,0.6-4.2,0.6-6.4,0.5c-53.7-0.3-107.3,2.4-161.1,1.4
				c-4.1-0.1-8.5,0.3-12.1-2.1c-0.1,0-0.1-0.1-0.3-0.1c-1.8-2.1,0.6-1.9,1.4-2.7c0.1,0.1,0.3,0.1,0.5,0.3c0.1,0.1,0.3,0.1,0.4,0.1
				c-0.1,0-0.3-0.1-0.5-0.3c-0.1,0-0.1-0.1-0.3-0.1c0,0,0,0,0-0.1l0,0c2.8-3.7,5.8-7.2,8.5-10.8c0,0,0,0,0.1,0
				c1.5,0.6,3.1,0.6,4.6,0.6c49.8-0.1,99.5,0,149.3-0.1c3,0,6,0.3,8.5-1.8h0.3C457.9,404.5,461.4,408.5,464.7,412.6L464.7,412.6z"/>
			<path class="st6" d="M464.5,443.8c-1.8,4.6-7.1,7.3-8.5,12.3c-52.1,0-104,0-156.1-0.1c-2.3,0-4.6,0.3-6.7,1.2
				c-0.1,0-0.1,0-0.3,0.1c-1.4-6.6-8-9.6-11.3-15l0.1-0.1c0,0,0,0,0,0.1c0.9,0.1,1.8,0.1,2.7,0.1c0.1,0,0.1-0.1,0.3-0.1
				c19.3,0,35.2,0.4,46,0.8c53.4,1.8,82.9,0,130.4,0c0.8,0,1.7,0.1,2.4,0C463.8,443.3,464.2,443.6,464.5,443.8z"/>
			<path class="st8" d="M284.7,442.3c-0.1,0-0.3,0.1-0.3,0.1c-0.9,0-1.8,0-2.7-0.1H284.7z"/>
			<path class="st6" d="M466.1,555.7c-1.8,4-4.8,7.1-8.6,9.4v2.7l-0.1,0.1c-1.4,0-2.7,0.1-4.1,0.1c-21,0.6-42,0.8-63-0.1
				c-1,0-1.9-0.1-3-0.1c-30.5,0.1-60.9,0.1-91.4,0.1c-0.5,0.4-1,0.9-1.4,1.3V569c-0.1-1.3-0.1-2.4-0.1-3.9c-4.1-2.2-6-6.2-8.6-9.5
				c0,0,0,0,0.1,0l0,0h180.2L466.1,555.7L466.1,555.7z"/>
		</g>
		<path class="st9" d="M327.7,355.4C327.7,355.4,327.5,355.4,327.7,355.4c-0.1-0.1-0.1-0.1-0.1-0.1L327.7,355.4z"/>
		<path class="st10" d="M284.9,581.4h-0.3C284.6,581.4,284.7,581.3,284.9,581.4C284.7,581.3,284.7,581.4,284.9,581.4z"/>
		<path class="st7" d="M468.7,581.4H284.9c0,0,0-0.1-0.1-0.1c0.9-1,1.7-1.7,2.4-2.6c2.4-3.2,4.9-6.3,7.3-9.5l0.1-0.1v0.1
			c0.4-0.4,0.9-0.9,1.4-1.3c30.5,0,60.9,0,91.4-0.1c1,0,1.9,0.1,3,0.1c21,0.9,42,0.8,63,0.1c1.4,0,2.7-0.1,4.1-0.1l0.1-0.1
			c2.6,3.9,7.2,6.2,8.7,10.8l-0.1,0.1h0.1c0.6,0.8,1.3,1.4,1.9,2.2C468.4,581,468.6,581.3,468.7,581.4z"/>
		<path class="st7" d="M467.5,554.3c-0.5,0.5-0.9,0.9-1.4,1.4H286l0,0c-0.5-0.6-1-1-1.5-1.3h0.1c-1-0.5-1-0.9,0-1.4
			c0.4-0.5,0.8-0.8,1.2-1.3l0,0c3.1-3.7,5.9-7.3,8.7-11.1c1.7,0.9,3.6,0.9,5.5,0.9c49.2-0.1,98.6,0,147.8-0.1c3.2,0,6.7,0.4,9.4-1.9
			l0,0c3.3,4.1,6.7,8.1,10.2,12.2v0.1l0.1-0.1C469,552.5,469,553.4,467.5,554.3z"/>
		<path class="st9" d="M327.8,350C327.8,350,327.7,350.1,327.8,350C327.7,350.1,327.7,350.1,327.8,350
			C327.7,350,327.8,350,327.8,350z"/>
		<path class="st9" d="M327.7,355.4C327.7,355.4,327.5,355.4,327.7,355.4c-0.1-0.1-0.1-0.1-0.1-0.1L327.7,355.4z"/>
		<path class="st9" d="M327.7,350.1c0,0-0.1,0.1-0.3,0.3C327.5,350.1,327.7,350,327.7,350.1C327.7,350,327.7,350.1,327.7,350.1z"/>
		<path class="st9" d="M418.9,356.5L418.9,356.5L418.9,356.5L418.9,356.5z"/>
		<path class="st9" d="M418.9,356.5L418.9,356.5L418.9,356.5C418.9,356.7,418.9,356.5,418.9,356.5z"/>
		<path class="st11" d="M283.3,412.5L283.3,412.5C283.2,412.5,283.2,412.5,283.3,412.5L283.3,412.5z"/>
		<path class="st11" d="M284,413c-0.1,0-0.3,0-0.4-0.1c0,0,0,0-0.1-0.1C283.6,412.9,283.8,412.9,284,413z"/>
		<path class="st11" d="M284.5,413.1c-0.1,0-0.4-0.1-0.5-0.1C284.1,413,284.4,413.1,284.5,413.1z"/>
		<path class="st7" d="M382.8,621.1c2.3,31.1,7.1,61.7,21.9,90c3.7,7.1-3.5,5.7-5.9,7.8c-1.3,1.2-2.3,1.4-3,1.3
			c-1.5-0.4-2.3-2.8-2.7-3.9c-8.6-30.1-12.9-45-12.7-55.8c0.1-5.8,0.6-12.5,0-22c-0.3-3.5-0.6-8.7-2.1-15.3c-0.5-2.6-1-4.6-1.5-6.2
			c-0.3,0.6-0.6,1.5-1,2.7c-1.4,4.8-1.2,8.7-1,10.5c0.8,9,1.2,13.5,1.4,16.1c0.6,5.7,0.5,10.7,0,20.7c-1.8,41.8-11.4,59.6-12,69.5
			c-0.1,1-0.3,4.8-2.3,5.9c-0.4,0.3-0.9,0.3-1.5,0.3c-3.9-0.4-7.6-2.6-10.9-4.6c-1.7-1,0.3-2.8,0.9-4.2
			c15.8-37.2,18.8-76.1,18.5-115.6c0-0.5-0.5-1.2-0.9-2.2c-2.7,2.4-1.7,5.3-1.8,7.7c-1.8,28.9-6.3,57.2-16.6,84.6
			c-1.2,3.1-1.9,6.6-6.4,3.3c-1.8-1.3-4.9-1.4-5.8-3.2s0.8-4.1,1.2-4.9c10.3-15.8,23.4-72.6,23.9-81.1c0-1,0.3-3.9-1.5-5.3
			c-1.2-0.9-2.6-0.9-3.3-0.9c-7.3,0.1-14.8-0.1-22.1,0.1c-4.4,0.4-5.5-1.4-5-5.1c29.2-0.1,58.5-0.3,87.7-0.5c2.8,0,3.9,0.9,4.1,2.1
			c0.1,1-0.3,2.3-0.5,3.7c-11.4,0-22.9,0.1-34.2-0.1C383.7,616.5,382.6,617.4,382.8,621.1z"/>
	</g>
	<path class="st8" d="M803.2,640.1L803.2,640.1C803.1,640.1,803.1,640,803.2,640.1L803.2,640.1z"/>
	<path class="st7" d="M708.8,632.2L708.8,632.2L708.8,632.2C708.8,632,708.8,632.2,708.8,632.2z"/>
	<path class="st7" d="M803.2,640.1L803.2,640.1C803.1,640.1,803.1,640,803.2,640.1L803.2,640.1z"/>
	<path class="st7" d="M805,601.8L805,601.8L805,601.8L805,601.8C804.9,601.8,804.9,601.8,805,601.8z"/>
	<path class="st8" d="M805,601.8L805,601.8L805,601.8L805,601.8C804.9,601.8,804.9,601.8,805,601.8z"/>
	<path class="st7" d="M804.6,684.5c-0.3,0.3-0.4,0.4-0.5,0.5c-0.1-0.1-0.3-0.3-0.4-0.5c0,0,0.1,0,0.1-0.1L804.6,684.5L804.6,684.5z"
		/>
	<path class="st12" d="M803.7,684.5C803.7,684.5,803.6,684.5,803.7,684.5C803.6,684.5,803.6,684.5,803.7,684.5L803.7,684.5z"/>
	<path class="st7" d="M806.2,608.8L806.2,608.8z"/>
</g>
<g id="Layer_2_1_">
	<path class="st13" d="M355.8,349.8c1.3-1.4,3.1-3.4,5.2-5.9c2.4-2.7,3-3.5,3.5-4c1.3-1.6,3.1-3.9,5.1-6.8c2,2.7,4.1,5.4,6.1,8.2
		c2.1,2.9,4.2,5.8,6.3,8.7C373.3,349.9,364.6,349.9,355.8,349.8z"/>
</g>
<g class="st5">
	<path class="st4" d="M363,805.6l1.7,2.9l2.6-1.5l0.8,1.4l-2.6,1.5l3.1,5.4c0.7,1.2,1.5,1.7,2.5,1.2c0.5-0.3,0.8-0.5,1-0.7l0.9,1.3
		c-0.3,0.3-0.8,0.8-1.5,1.2c-0.9,0.5-1.7,0.6-2.4,0.4c-0.8-0.2-1.5-1-2.2-2.2l-3.2-5.5l-1.6,0.9l-0.8-1.4l1.6-0.9l-1.4-2.4
		L363,805.6z"/>
	<path class="st4" d="M369.7,801.8c0.4,0.6,0.2,1.4-0.5,1.8c-0.6,0.4-1.4,0.1-1.8-0.5c-0.4-0.6-0.2-1.4,0.5-1.8
		C368.6,800.9,369.4,801.1,369.7,801.8z M375.1,815.9l-5.8-10.1l1.8-1.1l5.8,10.1L375.1,815.9z"/>
	<path class="st4" d="M380.2,793.3l7,12.2c0.5,0.9,1.1,1.9,1.6,2.6l-1.6,0.9l-1.1-1.7l0,0c0.1,1.4-0.6,3-2.3,4
		c-2.4,1.4-5.5,0.4-7.3-2.6c-2-3.3-1.1-6.6,1.4-8c1.5-0.9,3-0.8,3.9-0.2l0,0l-3.5-6L380.2,793.3z M383.4,803.1
		c-0.1-0.2-0.3-0.5-0.5-0.7c-0.9-1-2.5-1.4-3.9-0.6c-1.9,1.1-2.1,3.4-0.8,5.6c1.2,2,3.1,3.1,5.1,2c1.2-0.7,1.9-2.2,1.4-3.7
		c-0.1-0.3-0.2-0.5-0.4-0.8L383.4,803.1z"/>
	<path class="st4" d="M386.6,795.8l5.6,4.7c0.6,0.5,1.3,1.2,1.8,1.7l0,0c-0.2-0.7-0.4-1.6-0.6-2.5l-1.4-7.1l1.9-1.1l1.4,8.8
		c0.7,4.2,0.8,6.5,0.2,8.3c-0.4,1.3-1.2,2.1-1.6,2.5l-1.3-1.3c0.4-0.4,0.8-1,1.1-1.8c0.3-0.7,0.5-1.8,0.4-2.9c0-0.2,0-0.4-0.1-0.5
		c-0.1-0.1-0.2-0.2-0.4-0.4l-9.1-7.1L386.6,795.8z"/>
	<path class="st4" d="M397.3,793.3c-0.6-1-1.1-1.9-1.7-2.7l1.6-0.9l1,1.6l0.1,0c0-1.3,0.4-2.7,2.1-3.7c1.4-0.8,2.9-0.6,4,0.4l0,0
		c0-0.7,0.1-1.4,0.4-2c0.3-0.8,0.9-1.4,1.8-2c1.3-0.8,3.8-1,5.8,2.5l3.4,5.9l-1.8,1l-3.3-5.7c-1.1-1.9-2.5-2.7-4-1.8
		c-1,0.6-1.4,1.8-1.2,2.9c0.1,0.3,0.2,0.7,0.4,1l3.6,6.2l-1.8,1l-3.5-6c-0.9-1.6-2.3-2.4-3.7-1.6c-1.1,0.7-1.4,2.1-1.2,3.1
		c0.1,0.3,0.2,0.7,0.4,1l3.5,6.1l-1.8,1L397.3,793.3z"/>
	<path class="st4" d="M425,780.2c2.1,3.7,0.5,6.8-1.9,8.2c-2.7,1.6-6,0.8-7.8-2.4c-1.9-3.4-0.9-6.6,1.9-8.2
		C420.1,776.2,423.2,777.2,425,780.2z M417.1,785c1.3,2.2,3.5,3.1,5.3,2.1c1.7-1,2.1-3.4,0.8-5.7c-1-1.7-3.1-3.4-5.2-2.1
		C415.8,780.5,416,783,417.1,785z"/>
	<path class="st4" d="M430.4,764.3l7,12.2c0.5,0.9,1.1,1.9,1.6,2.6l-1.6,0.9l-1.1-1.7l0,0c0.1,1.4-0.6,3-2.3,4
		c-2.4,1.4-5.5,0.4-7.3-2.6c-2-3.3-1.1-6.6,1.4-8c1.5-0.9,3-0.8,3.9-0.2l0,0l-3.5-6L430.4,764.3z M433.7,774.1
		c-0.1-0.2-0.3-0.5-0.5-0.7c-0.9-1-2.5-1.4-3.9-0.6c-1.9,1.1-2.1,3.4-0.8,5.6c1.2,2,3.1,3.1,5.1,2c1.2-0.7,1.9-2.2,1.4-3.7
		c-0.1-0.3-0.2-0.5-0.4-0.8L433.7,774.1z"/>
	<path class="st4" d="M440.3,772c1.5,2.4,3.6,2.6,5.5,1.5c1.3-0.8,2-1.4,2.5-2.1l1.1,1.1c-0.5,0.7-1.4,1.6-3,2.6
		c-3.1,1.8-6.1,0.8-7.9-2.2c-1.8-3-1.3-6.5,1.6-8.1c3.3-1.9,5.8,0.5,6.9,2.3c0.2,0.4,0.3,0.7,0.4,0.9L440.3,772z M444.9,767.6
		c-0.7-1.2-2.2-2.7-4.3-1.5c-1.8,1.1-1.7,3.2-1.1,4.6L444.9,767.6z"/>
	<path class="st4" d="M443.9,756.5l1.8-1.1l8.5,14.8l-1.8,1.1L443.9,756.5z"/>
	<path class="st4" d="M456,766.7c0.7,0,1.9-0.1,2.8-0.7c1.3-0.8,1.6-1.8,1.1-2.6c-0.5-0.9-1.3-1.1-2.9-0.8c-2.2,0.4-3.6-0.1-4.3-1.3
		c-0.9-1.6-0.4-3.7,1.8-5c1-0.6,2.1-0.8,2.8-0.8l0.3,1.6c-0.5,0-1.5,0.1-2.4,0.6c-1.1,0.6-1.3,1.6-0.9,2.3c0.5,0.8,1.3,0.9,2.9,0.6
		c2.1-0.3,3.5,0,4.4,1.5c1,1.8,0.4,3.8-2,5.2c-1.1,0.6-2.3,1-3.2,0.9L456,766.7z"/>
	<path class="st4" d="M464.2,763c-0.4-0.8-0.2-1.6,0.5-2c0.7-0.4,1.5-0.2,2,0.6c0.4,0.7,0.3,1.6-0.5,2
		C465.5,764,464.7,763.7,464.2,763z"/>
	<path class="st4" d="M475.8,750.9c2.1,3.7,0.5,6.8-1.9,8.2c-2.7,1.6-6,0.8-7.8-2.4c-1.9-3.4-0.9-6.6,1.9-8.2
		C470.8,746.9,474,747.9,475.8,750.9z M467.8,755.7c1.3,2.2,3.5,3.1,5.3,2.1c1.7-1,2.1-3.4,0.8-5.7c-1-1.7-3.1-3.4-5.2-2.1
		S466.7,753.7,467.8,755.7z"/>
	<path class="st4" d="M477,747.8c-0.7-1.2-1.3-2.2-1.9-3.1l1.6-0.9l1.2,1.9l0.1,0c-0.3-1.6,0.3-3.1,1.5-3.8c0.2-0.1,0.4-0.2,0.6-0.2
		l1,1.7c-0.2,0.1-0.4,0.2-0.7,0.3c-1.3,0.7-1.6,2.2-1.1,3.8c0.1,0.3,0.2,0.6,0.4,0.9l3.1,5.4l-1.8,1L477,747.8z"/>
	<path class="st4" d="M490.5,735.8c0.4,0.8,0.8,1.6,1.5,2.8l3.4,5.8c1.3,2.3,1.7,4,1.2,5.4c-0.4,1.5-1.7,2.6-3,3.3
		c-1.2,0.7-2.7,1.2-3.8,1.1l-0.3-1.7c0.9,0,2.2-0.2,3.4-0.9c1.9-1.1,2.7-2.8,1.2-5.4l-0.6-1.1l0,0c0,1.3-0.7,2.6-2.2,3.5
		c-2.5,1.4-5.5,0.4-7.1-2.4c-2-3.4-0.9-6.6,1.4-8c1.7-1,3.2-0.6,4.1-0.1l0,0l-0.8-1.6L490.5,735.8z M490.9,740.9
		c-0.2-0.3-0.4-0.6-0.6-0.8c-0.9-0.9-2.3-1.2-3.7-0.5c-1.7,1-2.1,3.2-0.8,5.5c1.1,2,3.1,3,5.1,1.9c1.1-0.6,1.7-1.9,1.5-3.3
		c-0.1-0.4-0.2-0.7-0.4-1.1L490.9,740.9z"/>
</g>
</svg>
